<svg width="209" height="243" viewBox="0 0 209 243" fill="none" xmlns="http://www.w3.org/2000/svg">
<path d="M112.252 15.7667H111.752V16.2667V34.4853V34.9485L112.214 34.9839C129.485 36.3066 146.144 41.9633 160.649 51.431L161.05 51.6925L161.328 51.3036C161.636 50.8746 161.978 50.471 162.35 50.0966C162.35 50.0964 162.35 50.0962 162.35 50.096L175.363 37.0837C176.26 36.1859 177.326 35.4738 178.499 34.9879C179.672 34.5021 180.929 34.252 182.199 34.252C183.469 34.252 184.726 34.5021 185.899 34.9879C187.072 35.4738 188.137 36.1859 189.035 37.0837C189.933 37.9814 190.645 39.0472 191.131 40.2202C191.617 41.3932 191.867 42.6504 191.867 43.92C191.867 45.1896 191.617 46.4468 191.131 47.6198C190.645 48.7928 189.933 49.8586 189.035 50.7563L176.429 63.363L176.071 63.721L176.433 64.0745C193.388 80.6046 204.169 102.444 206.98 125.955C209.792 149.467 204.466 173.232 191.887 193.294C179.309 213.357 160.238 228.505 137.85 236.216C115.461 243.928 91.107 243.739 68.8418 235.679C46.5765 227.619 27.7438 212.176 15.4796 191.92C3.21531 171.664 -1.74044 147.819 1.43748 124.354C4.6154 100.889 15.7352 79.2204 32.9454 62.9565C50.1556 46.6926 72.4176 36.8147 96.0246 34.9675L96.4856 34.9315V34.4691V16.2667V15.7667H95.9856H79.7189C77.6944 15.7667 75.7529 14.9624 74.3213 13.5309C72.8898 12.0994 72.0856 10.1578 72.0856 8.13333C72.0856 6.10885 72.8898 4.16728 74.3213 2.73575C75.7529 1.30422 77.6944 0.5 79.7189 0.5H128.519C130.543 0.5 132.485 1.30422 133.917 2.73575C135.348 4.16728 136.152 6.10885 136.152 8.13333C136.152 10.1578 135.348 12.0994 133.917 13.5309C132.485 14.9624 130.543 15.7667 128.519 15.7667H112.252ZM41.6531 75.8008C25.0861 92.3678 15.7789 114.837 15.7789 138.267C15.7789 161.696 25.0861 184.166 41.6531 200.732C58.2201 217.299 80.6897 226.607 104.119 226.607C127.548 226.607 150.018 217.299 166.585 200.732C183.152 184.166 192.459 161.696 192.459 138.267C192.459 114.837 183.152 92.3678 166.585 75.8008C150.018 59.2339 127.548 49.9267 104.119 49.9267C80.6897 49.9267 58.2201 59.2339 41.6531 75.8008Z" fill="black" stroke="black"/>
</svg>
